<svg height="512pt" viewBox="0 0 512 512.00039" width="512pt" xmlns="http://www.w3.org/2000/svg"><path d="m335.75 357.835938-91.003906 17.183593c-30.757813 5.726563-58.546875 19.515625-82.097656 39.667969l-53.878907-11.457031-11.457031-53.878907c20.15625-23.546874 33.941406-51.335937 39.671875-82.09375l17.179687-91.007812 29.273438 5.515625-17.179688 91.007813c-2.96875 16.121093-8.0625 31.394531-14.636718 46.03125l41.574218 41.578124c14.640626-6.578124 29.910157-11.667968 46.035157-14.636718l91.003906-17.183594zm0 0" fill="#575f64"/><path d="m330.234375 328.5625 5.515625 29.273438-91.003906 17.179687c-30.757813 5.730469-58.546875 19.519531-82.097656 39.671875l-53.878907-11.457031 63.640625-63.640625 20.789063 20.789062c14.636719-6.574218 29.910156-11.664062 46.03125-14.636718zm0 0" fill="#32393f"/><path d="m178.34375 133.402344 21.214844-21.214844 200.25 200.25-21.214844 21.214844zm0 0" fill="#d3d3d8"/><path d="m263.199219 48.550781 21.210937-21.214843 200.25 200.25-21.210937 21.214843zm0 0" fill="#d3d3d8"/><path d="m363.324219 148.675781 21.210937-21.214843 100.125 100.125-21.210937 21.214843zm0 0" fill="#babac0"/><path d="m378.597656 333.65625-100.125-100.125 21.214844-21.214844 100.125 100.125zm0 0" fill="#babac0"/><path d="m395.164062 10.765625 21.214844 21.210937-233.386718 233.386719-21.210938-21.214843zm0 0" fill="#d3d3d8"/><path d="m480.019531 95.617188 21.210938 21.210937-233.382813 233.386719-21.214844-21.214844zm0 0" fill="#babac0"/><path d="m119.375 32c-23.332031-23.332031-61.519531-23.332031-84.851562 0-23.335938 23.335938-23.335938 61.519531 0 84.855469 23.332031 23.332031 61.519531 23.332031 84.851562 0 23.335938-23.335938 23.335938-61.519531 0-84.855469zm0 0" fill="#9cdd05"/><path d="m469.394531 42.605469c-64.277343-64.273438-178.617187-54.726563-254.558593 21.214843-31.394532 31.394532-53.035157 71.277344-60.671876 112.429688-10.394531 54.945312 4.03125 106.703125 39.457032 142.128906 35.425781 35.425782 87.1875 49.851563 142.128906 39.457032 41.15625-7.636719 81.035156-29.273438 112.429688-60.667969 75.945312-75.945313 85.488281-190.285157 21.214843-254.5625zm-139.160156 285.957031c-44.972656 8.484375-86.972656-2.96875-115.398437-31.394531-28.429688-28.425781-39.882813-70.429688-31.398438-115.402344 6.789062-35.210937 25.457031-69.578125 52.609375-96.730469 64.277344-64.277344 159.523437-73.824218 212.132813-21.214844 52.609374 52.609376 43.0625 147.855469-21.210938 212.132813-27.15625 27.152344-61.523438 45.820313-96.734375 52.609375zm0 0" fill="#575f64"/><path d="m448.179688 297.167969c-31.394532 31.394531-71.277344 53.03125-112.429688 60.667969-54.945312 10.394531-106.703125-4.03125-142.128906-39.457032l21.210937-21.210937c28.425781 28.425781 70.429688 39.878906 115.402344 31.394531 35.210937-6.789062 69.578125-25.457031 96.730469-52.609375 64.277344-64.277344 73.824218-159.523437 21.214844-212.132813l21.210937-21.214843c64.277344 64.277343 54.734375 178.617187-21.210937 254.5625zm0 0" fill="#32393f"/><path d="m162.648438 414.6875c-4.027344 3.179688-7.847657 6.152344-11.453126 9.757812l-87.554687 87.554688-63.640625-63.640625 87.554688-87.554687c3.605468-3.605469 6.578124-7.425782 9.757812-11.453126zm0 0" fill="#d3d3d8"/><path d="m129.980469 382.019531 32.667969 32.667969c-4.027344 3.183594-7.847657 6.152344-11.453126 9.757812l-87.554687 87.554688-31.820313-31.820312zm0 0" fill="#babac0"/><path d="m119.375 116.855469c-23.332031 23.332031-61.519531 23.332031-84.851562 0l84.851562-84.855469c23.335938 23.335938 23.335938 61.519531 0 84.855469zm0 0" fill="#6b0"/></svg>